<?xml version="1.0" standalone="no"?>
<!DOCTYPE svg PUBLIC "-//W3C//DTD SVG 20010904//EN"
 "http://www.w3.org/TR/2001/REC-SVG-20010904/DTD/svg10.dtd">
<svg version="1.0" xmlns="http://www.w3.org/2000/svg"
 width="3000.000000pt" height="3000.000000pt" viewBox="0 0 3000.000000 3000.000000"
 preserveAspectRatio="xMidYMid meet">
<metadata>
Created by potrace 1.11, written by Peter Selinger 2001-2013
</metadata>
<g transform="translate(0.000000,3000.000000) scale(0.100000,-0.100000)"
fill="#000000" stroke="none">
<path d="M14720 25044 c-519 -20 -929 -61 -1375 -135 -1648 -274 -3219 -966
-4530 -1993 -347 -271 -584 -483 -920 -820 -434 -435 -736 -789 -1070 -1256
-1466 -2050 -2104 -4571 -1794 -7085 10 -88 22 -173 25 -190 4 -16 3 -27 -1
-23 -4 4 -91 -56 -194 -134 -1885 -1433 -3094 -2728 -3479 -3728 -83 -217
-122 -409 -123 -605 0 -331 112 -573 367 -792 547 -468 1745 -614 3429 -417
686 80 1458 217 2274 405 l173 40 76 -83 c145 -160 609 -615 776 -761 1036
-906 2185 -1568 3464 -1996 840 -281 1675 -441 2607 -502 235 -16 921 -16
1150 0 1157 77 2160 302 3185 715 1489 600 2822 1558 3867 2778 724 845 1303
1804 1709 2829 176 444 301 835 418 1305 296 1195 368 2444 212 3670 l-22 175
35 28 c20 16 126 98 236 181 1139 869 2075 1738 2677 2486 487 605 773 1151
838 1602 18 124 8 366 -20 467 -48 176 -132 316 -272 451 -134 129 -275 221
-468 302 -972 409 -2772 339 -5190 -204 -298 -67 -275 -60 -260 -82 7 -9 -29
28 -80 83 -174 186 -474 486 -630 630 -1709 1576 -3895 2505 -6220 2644 -179
11 -733 20 -870 15z m355 -2709 c33 -8 94 -32 135 -51 69 -33 96 -57 325 -288
218 -218 255 -260 282 -317 53 -111 68 -173 67 -289 0 -120 -16 -187 -71 -295
-34 -65 -171 -205 -2112 -2146 -2037 -2037 -2077 -2077 -2151 -2112 -190 -91
-402 -89 -585 6 -46 24 -114 84 -293 262 -128 126 -250 255 -269 285 -52 77
-93 202 -99 302 -8 109 13 208 67 318 l41 85 2072 2070 c1608 1608 2084 2078
2129 2105 128 74 321 101 462 65z m7501 -727 l29 -33 -32 29 c-31 28 -38 36
-30 36 2 0 16 -15 33 -32z m64 -73 c13 -14 21 -25 18 -25 -2 0 -15 11 -28 25
-13 14 -21 25 -18 25 2 0 15 -11 28 -25z m55 -65 c10 -11 16 -20 13 -20 -3 0
-13 9 -23 20 -10 11 -16 20 -13 20 3 0 13 -9 23 -20z m50 -60 c10 -11 16 -20
13 -20 -3 0 -13 9 -23 20 -10 11 -16 20 -13 20 3 0 13 -9 23 -20z m46 -57 c13
-16 12 -17 -3 -4 -17 13 -22 21 -14 21 2 0 10 -8 17 -17z m44 -53 c10 -11 16
-20 13 -20 -3 0 -13 9 -23 20 -10 11 -16 20 -13 20 3 0 13 -9 23 -20z m36 -47
c13 -16 12 -17 -3 -4 -17 13 -22 21 -14 21 2 0 10 -8 17 -17z m40 -50 c13 -16
12 -17 -3 -4 -17 13 -22 21 -14 21 2 0 10 -8 17 -17z m40 -50 c13 -16 12 -17
-3 -4 -17 13 -22 21 -14 21 2 0 10 -8 17 -17z m30 -40 c13 -16 12 -17 -3 -4
-17 13 -22 21 -14 21 2 0 10 -8 17 -17z m30 -40 c13 -16 12 -17 -3 -4 -17 13
-22 21 -14 21 2 0 10 -8 17 -17z m60 -80 c13 -16 12 -17 -3 -4 -17 13 -22 21
-14 21 2 0 10 -8 17 -17z m30 -40 c13 -16 12 -17 -3 -4 -17 13 -22 21 -14 21
2 0 10 -8 17 -17z m30 -40 c13 -16 12 -17 -3 -4 -17 13 -22 21 -14 21 2 0 10
-8 17 -17z m50 -70 c13 -16 12 -17 -3 -4 -17 13 -22 21 -14 21 2 0 10 -8 17
-17z m685 -433 c484 -38 876 -149 1110 -315 247 -176 369 -448 335 -747 -41
-363 -263 -798 -644 -1266 l-76 -93 -27 88 c-42 139 -129 380 -219 608 -225
571 -510 1137 -833 1653 l-52 82 138 0 c77 0 197 -5 268 -10z m-8517 -1575
c42 -14 106 -43 142 -66 77 -50 441 -407 506 -497 148 -206 160 -470 31 -691
-24 -41 -260 -284 -858 -883 l-824 -828 824 -827 c598 -600 834 -843 858 -884
129 -221 117 -485 -31 -691 -65 -90 -429 -447 -506 -497 -100 -64 -204 -94
-331 -94 -120 -1 -183 14 -294 70 -66 33 -152 116 -1306 1266 -679 677 -1252
1253 -1273 1281 -80 104 -116 204 -124 337 -10 163 39 316 139 435 24 28 594
600 1268 1271 1144 1140 1230 1223 1295 1255 39 19 88 41 109 48 110 36 252
34 375 -5z m-10282 -5357 c-3 -8 -6 -5 -6 6 -1 11 2 17 5 13 3 -3 4 -12 1 -19z
m10 -60 c-3 -8 -6 -5 -6 6 -1 11 2 17 5 13 3 -3 4 -12 1 -19z m30 -180 c-3 -8
-6 -5 -6 6 -1 11 2 17 5 13 3 -3 4 -12 1 -19z m20 -110 c-3 -8 -6 -5 -6 6 -1
11 2 17 5 13 3 -3 4 -12 1 -19z m40 -200 c-3 -8 -6 -5 -6 6 -1 11 2 17 5 13 3
-3 4 -12 1 -19z m455 -1533 c221 -575 526 -1189 841 -1692 l74 -118 -121 -3
c-338 -9 -821 64 -1076 163 -403 155 -608 380 -651 713 -47 366 176 877 626
1437 47 58 85 110 85 117 0 7 36 -90 79 -217 43 -126 107 -306 143 -400z"/>
</g>
</svg>
